<svg width="1440" height="2049" viewBox="0 0 1440 2049" fill="none" xmlns="http://www.w3.org/2000/svg">
<g clip-path="url(#clip0_1_2)">
<rect width="1440" height="2049" fill="#E5EBF8"/>
<path fill-rule="evenodd" clip-rule="evenodd" d="M-271 632.763L-200.708 654.787C-130.417 675.81 10.1667 718.857 150.75 704.842C291.333 690.827 431.917 618.748 572.5 603.731C713.083 589.716 853.667 632.763 994.25 661.795C1134.83 690.827 1275.42 704.842 1345.71 711.85L1416 718.857V849H1345.71C1275.42 849 1134.83 849 994.25 849C853.667 849 713.083 849 572.5 849C431.917 849 291.333 849 150.75 849C10.1667 849 -130.417 849 -200.708 849H-271V632.763Z" fill="#586EA2"/>
<path fill-rule="evenodd" clip-rule="evenodd" d="M-312 863L-230.167 834.013C-148.333 805.027 15.3333 748.053 179 726.063C342.667 705.073 506.333 719.067 670 705.073C833.667 690.08 997.333 647.1 1161 640.103C1324.67 633.106 1488.33 661.094 1570.17 676.087L1652 690.08V863H1570.17C1488.33 863 1324.67 863 1161 863C997.333 863 833.667 863 670 863C506.333 863 342.667 863 179 863C15.3333 863 -148.333 863 -230.167 863H-312Z" fill="#003975"/>
<rect width="1440" height="1189" transform="translate(0 860)" fill="#003975"/>
<path d="M670.839 1972.92C672.199 1972.92 673.406 1973.23 674.459 1973.84C675.513 1974.44 676.333 1975.28 676.919 1976.36C677.506 1977.44 677.799 1978.67 677.799 1980.04C677.799 1981.41 677.506 1982.65 676.919 1983.74C676.333 1984.82 675.513 1985.67 674.459 1986.28C673.406 1986.88 672.199 1987.18 670.839 1987.18C669.479 1987.18 668.266 1986.88 667.199 1986.28C666.146 1985.67 665.326 1984.82 664.739 1983.74C664.153 1982.65 663.859 1981.41 663.859 1980.04C663.859 1978.67 664.153 1977.44 664.739 1976.36C665.326 1975.28 666.146 1974.44 667.199 1973.84C668.266 1973.23 669.479 1972.92 670.839 1972.92ZM670.839 1973.84C669.626 1973.84 668.566 1974.09 667.659 1974.6C666.766 1975.11 666.073 1975.83 665.579 1976.78C665.099 1977.71 664.859 1978.8 664.859 1980.04C664.859 1981.28 665.099 1982.37 665.579 1983.3C666.073 1984.23 666.766 1984.96 667.659 1985.48C668.566 1986 669.626 1986.26 670.839 1986.26C672.039 1986.26 673.086 1986 673.979 1985.48C674.886 1984.96 675.579 1984.23 676.059 1983.3C676.553 1982.37 676.799 1981.28 676.799 1980.04C676.799 1978.8 676.553 1977.71 676.059 1976.78C675.579 1975.83 674.893 1975.11 673.999 1974.6C673.106 1974.09 672.053 1973.84 670.839 1973.84ZM670.779 1975.44C669.966 1975.44 669.226 1975.63 668.559 1976.02C667.893 1976.39 667.366 1976.93 666.979 1977.62C666.606 1978.31 666.419 1979.11 666.419 1980.02C666.419 1980.93 666.613 1981.73 666.999 1982.44C667.386 1983.13 667.906 1983.67 668.559 1984.06C669.226 1984.43 669.966 1984.62 670.779 1984.62C671.793 1984.62 672.666 1984.35 673.399 1983.82C674.133 1983.27 674.626 1982.56 674.879 1981.68H672.799C672.626 1982.11 672.379 1982.43 672.059 1982.66C671.739 1982.89 671.313 1983 670.779 1983C670.073 1983 669.506 1982.75 669.079 1982.24C668.653 1981.72 668.439 1980.98 668.439 1980.02C668.439 1979.06 668.653 1978.33 669.079 1977.82C669.506 1977.31 670.073 1977.06 670.779 1977.06C671.286 1977.06 671.713 1977.17 672.059 1977.4C672.419 1977.63 672.666 1977.95 672.799 1978.38H674.879C674.626 1977.45 674.139 1976.73 673.419 1976.22C672.699 1975.7 671.819 1975.44 670.779 1975.44ZM684.661 1975.8C685.514 1975.8 686.267 1975.97 686.921 1976.32C687.587 1976.65 688.107 1977.07 688.481 1977.58V1975.98H690.781V1987.18C690.781 1988.19 690.567 1989.09 690.141 1989.88C689.714 1990.68 689.094 1991.31 688.281 1991.76C687.481 1992.21 686.521 1992.44 685.401 1992.44C683.907 1992.44 682.667 1992.09 681.681 1991.38C680.694 1990.69 680.134 1989.74 680.001 1988.54H682.261C682.434 1989.11 682.801 1989.57 683.361 1989.92C683.934 1990.28 684.614 1990.46 685.401 1990.46C686.321 1990.46 687.061 1990.18 687.621 1989.62C688.194 1989.06 688.481 1988.25 688.481 1987.18V1985.34C688.094 1985.86 687.567 1986.3 686.901 1986.66C686.247 1987.01 685.501 1987.18 684.661 1987.18C683.701 1987.18 682.821 1986.94 682.021 1986.46C681.234 1985.97 680.607 1985.29 680.141 1984.42C679.687 1983.54 679.461 1982.55 679.461 1981.44C679.461 1980.33 679.687 1979.35 680.141 1978.5C680.607 1977.65 681.234 1976.99 682.021 1976.52C682.821 1976.04 683.701 1975.8 684.661 1975.8ZM688.481 1981.48C688.481 1980.72 688.321 1980.06 688.001 1979.5C687.694 1978.94 687.287 1978.51 686.781 1978.22C686.274 1977.93 685.727 1977.78 685.141 1977.78C684.554 1977.78 684.007 1977.93 683.501 1978.22C682.994 1978.5 682.581 1978.92 682.261 1979.48C681.954 1980.03 681.801 1980.68 681.801 1981.44C681.801 1982.2 681.954 1982.87 682.261 1983.44C682.581 1984.01 682.994 1984.45 683.501 1984.76C684.021 1985.05 684.567 1985.2 685.141 1985.2C685.727 1985.2 686.274 1985.05 686.781 1984.76C687.287 1984.47 687.694 1984.04 688.001 1983.48C688.321 1982.91 688.481 1982.24 688.481 1981.48ZM703.755 1975.98V1987H701.475V1985.7C701.115 1986.15 700.642 1986.51 700.055 1986.78C699.482 1987.03 698.869 1987.16 698.215 1987.16C697.349 1987.16 696.569 1986.98 695.875 1986.62C695.195 1986.26 694.655 1985.73 694.255 1985.02C693.869 1984.31 693.675 1983.46 693.675 1982.46V1975.98H695.935V1982.12C695.935 1983.11 696.182 1983.87 696.675 1984.4C697.169 1984.92 697.842 1985.18 698.695 1985.18C699.549 1985.18 700.222 1984.92 700.715 1984.4C701.222 1983.87 701.475 1983.11 701.475 1982.12V1975.98H703.755ZM709.044 1972.2V1987H706.764V1972.2H709.044ZM714.317 1977.6C714.704 1977.09 715.23 1976.67 715.897 1976.32C716.564 1975.97 717.317 1975.8 718.157 1975.8C719.117 1975.8 719.99 1976.04 720.777 1976.52C721.577 1976.99 722.204 1977.65 722.657 1978.5C723.11 1979.35 723.337 1980.33 723.337 1981.44C723.337 1982.55 723.11 1983.54 722.657 1984.42C722.204 1985.29 721.577 1985.97 720.777 1986.46C719.99 1986.94 719.117 1987.18 718.157 1987.18C717.317 1987.18 716.57 1987.01 715.917 1986.68C715.264 1986.33 714.73 1985.91 714.317 1985.4V1992.24H712.037V1975.98H714.317V1977.6ZM721.017 1981.44C721.017 1980.68 720.857 1980.03 720.537 1979.48C720.23 1978.92 719.817 1978.5 719.297 1978.22C718.79 1977.93 718.244 1977.78 717.657 1977.78C717.084 1977.78 716.537 1977.93 716.017 1978.22C715.51 1978.51 715.097 1978.94 714.777 1979.5C714.47 1980.06 714.317 1980.72 714.317 1981.48C714.317 1982.24 714.47 1982.91 714.777 1983.48C715.097 1984.04 715.51 1984.47 716.017 1984.76C716.537 1985.05 717.084 1985.2 717.657 1985.2C718.244 1985.2 718.79 1985.05 719.297 1984.76C719.817 1984.45 720.23 1984.01 720.537 1983.44C720.857 1982.87 721.017 1982.2 721.017 1981.44ZM731.747 1983.9C733.027 1982.79 734.034 1981.89 734.767 1981.18C735.514 1980.46 736.134 1979.71 736.627 1978.94C737.12 1978.17 737.367 1977.39 737.367 1976.62C737.367 1975.82 737.174 1975.19 736.787 1974.74C736.414 1974.29 735.82 1974.06 735.007 1974.06C734.22 1974.06 733.607 1974.31 733.167 1974.82C732.74 1975.31 732.514 1975.98 732.487 1976.82H730.287C730.327 1975.3 730.78 1974.14 731.647 1973.34C732.527 1972.53 733.64 1972.12 734.987 1972.12C736.44 1972.12 737.574 1972.52 738.387 1973.32C739.214 1974.12 739.627 1975.19 739.627 1976.52C739.627 1977.48 739.38 1978.41 738.887 1979.3C738.407 1980.18 737.827 1980.97 737.147 1981.68C736.48 1982.37 735.627 1983.18 734.587 1984.1L733.687 1984.9H740.027V1986.8H730.307V1985.14L731.747 1983.9ZM742.03 1979.52C742.03 1977.21 742.417 1975.41 743.19 1974.12C743.977 1972.81 745.323 1972.16 747.23 1972.16C749.137 1972.16 750.477 1972.81 751.25 1974.12C752.037 1975.41 752.43 1977.21 752.43 1979.52C752.43 1981.85 752.037 1983.68 751.25 1985C750.477 1986.31 749.137 1986.96 747.23 1986.96C745.323 1986.96 743.977 1986.31 743.19 1985C742.417 1983.68 742.03 1981.85 742.03 1979.52ZM750.19 1979.52C750.19 1978.44 750.117 1977.53 749.97 1976.78C749.837 1976.03 749.557 1975.43 749.13 1974.96C748.703 1974.48 748.07 1974.24 747.23 1974.24C746.39 1974.24 745.757 1974.48 745.33 1974.96C744.903 1975.43 744.617 1976.03 744.47 1976.78C744.337 1977.53 744.27 1978.44 744.27 1979.52C744.27 1980.64 744.337 1981.58 744.47 1982.34C744.603 1983.1 744.883 1983.71 745.31 1984.18C745.75 1984.65 746.39 1984.88 747.23 1984.88C748.07 1984.88 748.703 1984.65 749.13 1984.18C749.57 1983.71 749.857 1983.1 749.99 1982.34C750.123 1981.58 750.19 1980.64 750.19 1979.52ZM756.103 1983.9C757.383 1982.79 758.389 1981.89 759.123 1981.18C759.869 1980.46 760.489 1979.71 760.983 1978.94C761.476 1978.17 761.723 1977.39 761.723 1976.62C761.723 1975.82 761.529 1975.19 761.143 1974.74C760.769 1974.29 760.176 1974.06 759.363 1974.06C758.576 1974.06 757.963 1974.31 757.523 1974.82C757.096 1975.31 756.869 1975.98 756.843 1976.82H754.643C754.683 1975.3 755.136 1974.14 756.003 1973.34C756.883 1972.53 757.996 1972.12 759.343 1972.12C760.796 1972.12 761.929 1972.52 762.743 1973.32C763.569 1974.12 763.983 1975.19 763.983 1976.52C763.983 1977.48 763.736 1978.41 763.243 1979.3C762.763 1980.18 762.183 1980.97 761.503 1981.68C760.836 1982.37 759.983 1983.18 758.943 1984.1L758.043 1984.9H764.383V1986.8H754.663V1985.14L756.103 1983.9ZM766.346 1976.02C766.426 1974.78 766.899 1973.81 767.766 1973.12C768.646 1972.43 769.766 1972.08 771.126 1972.08C772.059 1972.08 772.866 1972.25 773.546 1972.58C774.226 1972.91 774.739 1973.37 775.086 1973.94C775.432 1974.51 775.606 1975.16 775.606 1975.88C775.606 1976.71 775.386 1977.41 774.946 1978C774.506 1978.59 773.979 1978.98 773.366 1979.18V1979.26C774.152 1979.5 774.766 1979.94 775.206 1980.58C775.646 1981.21 775.866 1982.01 775.866 1983C775.866 1983.79 775.686 1984.49 775.326 1985.1C774.966 1985.71 774.432 1986.2 773.726 1986.56C773.019 1986.91 772.172 1987.08 771.186 1987.08C769.746 1987.08 768.559 1986.71 767.626 1985.98C766.706 1985.23 766.212 1984.17 766.146 1982.78H768.346C768.399 1983.49 768.672 1984.07 769.166 1984.52C769.659 1984.96 770.326 1985.18 771.166 1985.18C771.979 1985.18 772.606 1984.96 773.046 1984.52C773.486 1984.07 773.706 1983.49 773.706 1982.78C773.706 1981.85 773.406 1981.19 772.806 1980.8C772.219 1980.4 771.312 1980.2 770.086 1980.2H769.566V1978.32H770.106C771.186 1978.31 772.006 1978.13 772.566 1977.78C773.139 1977.43 773.426 1976.89 773.426 1976.14C773.426 1975.5 773.219 1974.99 772.806 1974.62C772.392 1974.23 771.806 1974.04 771.046 1974.04C770.299 1974.04 769.719 1974.23 769.306 1974.62C768.892 1974.99 768.646 1975.46 768.566 1976.02H766.346Z" fill="white"/>
</g>
<defs>
<clipPath id="clip0_1_2">
<rect width="1440" height="2049" fill="white"/>
</clipPath>
</defs>
</svg>
